<?xml version="1.0" encoding="utf-8"?>
<!-- Generator: Adobe Illustrator 15.0.0, SVG Export Plug-In . SVG Version: 6.00 Build 0)  -->
<!DOCTYPE svg PUBLIC "-//W3C//DTD SVG 1.1//EN" "http://www.w3.org/Graphics/SVG/1.1/DTD/svg11.dtd">
<svg version="1.1" id="Layer_1" xmlns="http://www.w3.org/2000/svg" xmlns:xlink="http://www.w3.org/1999/xlink" x="0px" y="0px"
	 width="400px" height="400px" viewBox="0 0 400 400" enable-background="new 0 0 400 400" xml:space="preserve">
<circle fill="#231F20" cx="200.5" cy="198.906" r="172.881"/>
<linearGradient id="SVGID_1_" gradientUnits="userSpaceOnUse" x1="200.5005" y1="288.7393" x2="200.5005" y2="109.0786">
	<stop  offset="0" style="stop-color:#04ACCC"/>
	<stop  offset="1" style="stop-color:#FF1F80"/>
</linearGradient>
<circle fill="url(#SVGID_1_)" cx="200.5" cy="198.909" r="89.831"/>
<linearGradient id="SVGID_2_" gradientUnits="userSpaceOnUse" x1="200.5005" y1="288.7393" x2="200.5005" y2="109.0786">
	<stop  offset="0" style="stop-color:#12BC00"/>
	<stop  offset="1" style="stop-color:#FF9400"/>
</linearGradient>
<circle fill="url(#SVGID_2_)" cx="200.5" cy="198.909" r="89.831"/>
<linearGradient id="SVGID_3_" gradientUnits="userSpaceOnUse" x1="200.5005" y1="288.7393" x2="200.5005" y2="109.0786">
	<stop  offset="0" style="stop-color:#1200FF"/>
	<stop  offset="1" style="stop-color:#FF9400"/>
</linearGradient>
<circle fill="url(#SVGID_3_)" cx="200.5" cy="198.909" r="89.831"/>
<rect x="15.972" y="257.459" fill="#FFFFFF" width="369.057" height="123.148"/>
<circle fill="#FFFFFF" cx="200.5" cy="198.909" r="5.085"/>
<path fill="none" stroke="#FFFFFF" stroke-width="3" stroke-linecap="round" stroke-miterlimit="10" d="M60.945,120.354
	c5.228-9.266,11.463-18.146,18.714-26.488c7.168-8.246,14.995-15.581,23.334-21.995"/>
<g>
	<path d="M98.434,301.144c1.52,1.521,3.435,2.28,5.742,2.28c2.271,0,4.047-0.678,5.33-2.033c1.282-1.354,1.923-3.388,1.923-6.1
		h-8.517v-6.154h16.485v13.023c0,1.832,0.045,3.443,0.137,4.836c0.091,1.393,0.155,2.271,0.192,2.637h-4.671
		c-0.477-1.318-0.916-2.729-1.318-4.23c-1.173,1.502-2.702,2.674-4.588,3.517c-1.887,0.843-3.893,1.264-6.017,1.264h-0.275
		c-3.004,0-5.687-0.677-8.05-2.032c-2.363-1.355-4.213-3.298-5.55-5.825c-1.337-2.528-2.005-5.476-2.005-8.847v-5.385
		c0-3.371,0.695-6.32,2.088-8.848c1.392-2.527,3.343-4.469,5.852-5.824c2.509-1.355,5.358-2.033,8.545-2.033h0.769
		c2.748,0,5.256,0.576,7.528,1.73c2.271,1.154,4.066,2.785,5.385,4.891c1.319,2.107,1.979,4.553,1.979,7.336h-8.023
		c0-2.381-0.696-4.176-2.088-5.385c-1.393-1.209-3.151-1.814-5.275-1.814c-2.308,0-4.195,0.762-5.66,2.281
		c-1.465,1.521-2.198,3.673-2.198,6.457v7.803C96.154,297.471,96.914,299.624,98.434,301.144z"/>
	<path d="M153.905,310.018c-1.869,0-3.389-0.457-4.561-1.373c-1.173-0.916-1.758-2.454-1.758-4.616c0-3.149-0.412-5.604-1.236-7.363
		s-2.373-2.638-4.643-2.638h-6.375v15.605h-8.352v-37.695h16.869c3.59,0,6.603,0.733,9.04,2.198
		c2.436,1.466,3.654,3.847,3.654,7.144c0,1.318-0.293,2.619-0.879,3.901c-0.586,1.282-1.401,2.382-2.445,3.297
		c-1.044,0.917-2.189,1.483-3.435,1.704v0.274c1.612,0.513,3.022,1.612,4.231,3.297c1.209,1.686,1.813,3.938,1.813,6.759
		c0,4.03,0.935,6.338,2.803,6.924v1.868C157.422,309.779,155.846,310.018,153.905,310.018z M146.679,286.17
		c0.86-0.806,1.292-1.776,1.292-2.912v-0.385c0-1.209-0.412-2.207-1.236-2.995c-0.824-0.787-1.878-1.181-3.16-1.181h-8.243v8.682
		h8.243C144.784,287.379,145.818,286.977,146.679,286.17z"/>
	<path d="M185.5,302.215H170.5l-2.638,7.418h-8.188l13.683-37.695h10.111l13.682,37.695h-8.902L185.5,302.215z M172.807,295.786
		h10.44c-1.393-4.14-3.077-9.067-5.055-14.782h-0.275L172.807,295.786z"/>
	<path d="M201.216,309.633v-37.695h26.54l-0.934,6.76h-17.254v8.242h16.1v6.758h-16.1v9.178h17.418l0.936,6.758H201.216z"/>
	<path d="M270.781,309.633v-27.749h-0.274l-9.781,27.749h-8.901l-9.781-27.749h-0.275v27.749h-7.692v-37.695h13.683l8.791,24.893
		h0.221l8.791-24.893h13.684v37.695H270.781z"/>
	<path d="M287.211,309.633v-37.695h26.541l-0.934,6.76h-17.255v8.242h16.101v6.758h-16.101v9.178h17.419l0.935,6.758H287.211z"/>
</g>
<g>
	<path d="M107.069,319.817c-0.514-0.095-0.92-0.142-1.217-0.142c-0.649,0-1.197,0.162-1.643,0.486s-0.669,0.975-0.669,1.947v2.354
		h4.828v4.058h-4.828v16.675h-5.924v-16.675h-2.435v-4.058h2.435v-2.719c0-4.057,2.083-6.086,6.248-6.086
		c0.676,0,1.461,0.082,2.354,0.244s1.609,0.365,2.15,0.608v3.61C108.016,320.014,107.583,319.912,107.069,319.817z"/>
	<path d="M129.505,342.011c-0.866,1.231-2.008,2.138-3.428,2.718c-1.42,0.582-2.969,0.873-4.646,0.873h-0.649
		c-1.921,0-3.651-0.406-5.193-1.217c-1.542-0.812-2.752-1.981-3.631-3.51c-0.879-1.527-1.319-3.348-1.319-5.457v-1.177
		c0-2.083,0.446-3.896,1.339-5.437c0.893-1.542,2.103-2.719,3.631-3.53c1.528-0.812,3.252-1.218,5.173-1.218h0.649
		c1.677,0,3.232,0.346,4.666,1.035s2.583,1.691,3.449,3.002c0.866,1.312,1.298,2.861,1.298,4.646v3.083h-14.2v0.974
		c0,1.354,0.398,2.482,1.197,3.389c0.797,0.906,1.887,1.359,3.266,1.359c1.244,0,2.225-0.346,2.941-1.035
		c0.716-0.689,1.075-1.711,1.075-3.063h5.68C130.804,339.259,130.371,340.78,129.505,342.011z M117.922,329.373
		c-0.744,0.838-1.17,1.906-1.278,3.205h8.196c0-1.38-0.318-2.469-0.954-3.267c-0.636-0.798-1.657-1.196-3.063-1.196
		C119.632,328.115,118.666,328.534,117.922,329.373z"/>
	<path d="M146.911,331.563c0-0.839-0.23-1.562-0.69-2.171c-0.46-0.608-1.19-0.912-2.191-0.912c-0.947,0-1.67,0.371-2.17,1.115
		c-0.501,0.744-0.75,1.67-0.75,2.779v12.82h-5.843v-20.732h4.382l0.73,3.043c0.108-0.297,0.385-0.717,0.832-1.258
		s1.096-1.041,1.948-1.501s1.859-0.69,3.022-0.69c1.866,0,3.307,0.582,4.321,1.745c1.014,1.163,1.521,2.705,1.521,4.626
		c0,0.405-0.021,0.811-0.061,1.217s-0.075,0.689-0.102,0.852h-4.95V331.563z"/>
	<path d="M168.618,342.6c-1.515,2.002-3.462,3.002-5.842,3.002c-1.623,0-3.083-0.393-4.382-1.177s-2.327-1.974-3.083-3.57
		c-0.758-1.596-1.136-3.57-1.136-5.924v-0.446c0-2.244,0.351-4.151,1.055-5.721c0.703-1.568,1.657-2.744,2.86-3.529
		s2.562-1.178,4.078-1.178c1.298,0,2.441,0.271,3.429,0.812c0.987,0.541,1.778,1.203,2.374,1.988v-10.874h5.923v29.212h-4.666
		L168.618,342.6z M161.274,340.266c0.73,0.853,1.664,1.279,2.8,1.279c1.136,0,2.069-0.427,2.799-1.279
		c0.73-0.852,1.096-2.062,1.096-3.631v-3.367c0-1.596-0.365-2.812-1.096-3.652c-0.73-0.838-1.664-1.258-2.799-1.258
		c-1.136,0-2.069,0.42-2.8,1.258c-0.73,0.84-1.095,2.057-1.095,3.652v3.367C160.179,338.204,160.544,339.414,161.274,340.266z"/>
	<path d="M179.207,315.983h6.005v4.666h-6.005V315.983z M179.247,345.195v-20.732h5.924v20.732H179.247z"/>
	<path d="M195.598,327.506c1.704-2.299,3.908-3.449,6.613-3.449c2.11,0,3.848,0.568,5.214,1.705c1.366,1.136,2.05,2.786,2.05,4.949
		v14.484h-5.924V332.01c0-1.055-0.305-1.928-0.914-2.617c-0.607-0.689-1.386-1.035-2.332-1.035c-1.055,0-1.961,0.4-2.719,1.197
		c-0.757,0.799-1.136,1.766-1.136,2.901v12.739h-5.924v-20.732h4.422L195.598,327.506z"/>
	<path d="M226.574,328.967c-0.582-0.568-1.521-0.852-2.819-0.852c-0.758,0-1.407,0.128-1.948,0.385
		c-0.541,0.258-0.953,0.575-1.236,0.953c-0.285,0.379-0.426,0.73-0.426,1.055v0.325h-5.722c-0.054-0.325-0.081-0.567-0.081-0.73
		c0-1.163,0.386-2.204,1.156-3.124c0.771-0.919,1.846-1.637,3.226-2.15s2.962-0.771,4.747-0.771h0.852
		c2.922,0,5.139,0.576,6.654,1.725c1.515,1.15,2.272,2.726,2.272,4.727v9.576c0,0.486,0.114,0.852,0.345,1.096
		c0.229,0.242,0.508,0.365,0.832,0.365c0.27,0,0.568-0.055,0.893-0.163c0.324-0.107,0.581-0.202,0.771-0.284v3.652
		c-1.001,0.567-2.19,0.852-3.57,0.852c-1.487,0-2.624-0.305-3.408-0.913s-1.245-1.467-1.38-2.576
		c-1.893,2.327-4.219,3.489-6.979,3.489c-2.056,0-3.746-0.419-5.071-1.258c-1.325-0.838-1.987-2.435-1.987-4.787
		c0-1.921,0.547-3.389,1.643-4.402c1.096-1.015,2.617-1.697,4.564-2.049s4.463-0.527,7.547-0.527v-1.38
		C227.447,330.279,227.156,329.535,226.574,328.967z M221.706,336.655c-1.258,0.501-1.887,1.318-1.887,2.454
		c0,0.893,0.249,1.521,0.751,1.887c0.5,0.365,1.264,0.549,2.292,0.549c0.703,0,1.405-0.189,2.11-0.568
		c0.702-0.379,1.291-0.92,1.764-1.623c0.474-0.703,0.711-1.487,0.711-2.354v-1.096C224.877,335.904,222.964,336.155,221.706,336.655
		z"/>
	<path d="M244.082,327.506c1.703-2.299,3.908-3.449,6.613-3.449c2.109,0,3.848,0.568,5.213,1.705
		c1.365,1.136,2.049,2.786,2.049,4.949v14.484h-5.924V332.01c0-1.055-0.304-1.928-0.912-2.617c-0.609-0.689-1.387-1.035-2.333-1.035
		c-1.056,0-1.962,0.4-2.719,1.197c-0.757,0.799-1.136,1.766-1.136,2.901v12.739h-5.924v-20.732h4.422L244.082,327.506z"/>
	<path d="M276.742,342.6c-1.516,2.002-3.463,3.002-5.842,3.002c-1.623,0-3.084-0.393-4.383-1.177
		c-1.298-0.784-2.326-1.974-3.083-3.57c-0.758-1.596-1.136-3.57-1.136-5.924v-0.446c0-2.244,0.351-4.151,1.055-5.721
		c0.703-1.568,1.656-2.744,2.859-3.529c1.204-0.785,2.562-1.178,4.078-1.178c1.299,0,2.441,0.271,3.429,0.812
		s1.778,1.203,2.374,1.988v-10.874h5.923v29.212h-4.665L276.742,342.6z M269.398,340.266c0.73,0.853,1.664,1.279,2.8,1.279
		s2.069-0.427,2.8-1.279c0.73-0.852,1.096-2.062,1.096-3.631v-3.367c0-1.596-0.365-2.812-1.096-3.652
		c-0.73-0.838-1.664-1.258-2.8-1.258s-2.069,0.42-2.8,1.258c-0.73,0.84-1.096,2.057-1.096,3.652v3.367
		C268.303,338.204,268.668,339.414,269.398,340.266z"/>
	<path d="M291.104,338.866c0,0.947,0.419,1.63,1.258,2.05c0.838,0.419,1.88,0.629,3.124,0.629c1.082,0,2.049-0.163,2.9-0.487
		c0.853-0.325,1.278-0.839,1.278-1.542c0-0.757-0.392-1.299-1.177-1.623s-2.002-0.608-3.651-0.852
		c-1.731-0.298-3.151-0.622-4.26-0.975c-1.11-0.351-2.063-0.959-2.86-1.825c-0.799-0.865-1.197-2.069-1.197-3.61
		c0-1.406,0.412-2.604,1.238-3.592c0.824-0.986,1.92-1.73,3.285-2.23c1.366-0.501,2.861-0.752,4.484-0.752h0.811
		c1.434,0,2.793,0.238,4.078,0.711c1.284,0.473,2.318,1.136,3.104,1.988c0.784,0.852,1.177,1.818,1.177,2.9
		c0,0.217-0.015,0.413-0.04,0.588c-0.027,0.177-0.041,0.278-0.041,0.305h-5.193c0-1.623-1.244-2.434-3.732-2.434
		c-1.137,0-2.049,0.162-2.739,0.486c-0.689,0.324-1.034,0.771-1.034,1.339c0,0.677,0.371,1.149,1.115,1.42s1.914,0.527,3.51,0.771
		c1.812,0.299,3.279,0.616,4.402,0.954c1.122,0.339,2.103,0.946,2.941,1.825c0.838,0.88,1.258,2.117,1.258,3.713
		c0,2.461-0.866,4.24-2.597,5.336c-1.731,1.095-3.936,1.643-6.613,1.643h-1.339c-1.678,0-3.179-0.258-4.504-0.771
		c-1.325-0.513-2.359-1.243-3.104-2.19c-0.744-0.946-1.115-2.028-1.115-3.245l0.04-0.812h5.193V338.866z"/>
</g>
</svg>
